<?xml version="1.0" encoding="utf-8"?>
<!-- Generator: Adobe Illustrator 21.0.0, SVG Export Plug-In . SVG Version: 6.00 Build 0)  -->
<svg version="1.1" id="Camada_1" xmlns="http://www.w3.org/2000/svg" xmlns:xlink="http://www.w3.org/1999/xlink" x="0px" y="0px"
	 viewBox="0 0 85 78.5" style="enable-background:new 0 0 85 78.5;" xml:space="preserve">
<style type="text/css">
	.st0{fill:#BD65DF;}
	.st1{fill:#2B2D42;}
</style>
<g>
	<circle class="st0" cx="53.7" cy="28.1" r="22.6"/>
</g>
<g>
	<g>
		<g>
			<polygon class="st1" points="59.1,74.5 11.7,74.5 11.7,13 20.3,13 20.3,15.2 13.8,15.2 13.8,72.3 56.9,72.3 56.9,15.2 50.5,15.2 
				50.5,13 59.1,13 			"/>
		</g>
		<g>
			<path class="st1" d="M48.3,19.5H22.4v-8.6H29c0.5-3.1,3.2-5.4,6.4-5.4c3.2,0,5.9,2.3,6.4,5.4h6.6V19.5z M24.6,17.4h21.6V13h-6.5
				V12c0-2.4-1.9-4.3-4.3-4.3c-2.4,0-4.3,1.9-4.3,4.3V13h-6.5V17.4z"/>
		</g>
		<g>
			<rect x="34.3" y="10.9" class="st1" width="2.2" height="2.2"/>
		</g>
		<g>
			<polygon class="st1" points="54.8,65.9 16,65.9 16,14.1 18.1,14.1 18.1,63.7 52.6,63.7 52.6,14.1 54.8,14.1 			"/>
		</g>
		<g>
			<g>
				<rect x="24.6" y="23.8" class="st1" width="2.2" height="6.5"/>
			</g>
			<g>
				<rect x="22.4" y="26" class="st1" width="6.5" height="2.2"/>
			</g>
		</g>
		<g>
			<g>
				<rect x="22.4" y="32.5" class="st1" width="2.2" height="2.2"/>
			</g>
			<g>
				<rect x="26.8" y="32.5" class="st1" width="21.6" height="2.2"/>
			</g>
			<g>
				<rect x="22.4" y="36.8" class="st1" width="2.2" height="2.2"/>
			</g>
			<g>
				<rect x="26.8" y="36.8" class="st1" width="21.6" height="2.2"/>
			</g>
			<g>
				<rect x="22.4" y="41.1" class="st1" width="2.2" height="2.2"/>
			</g>
			<g>
				<rect x="26.8" y="41.1" class="st1" width="21.6" height="2.2"/>
			</g>
			<g>
				<rect x="22.4" y="45.4" class="st1" width="2.2" height="2.2"/>
			</g>
			<g>
				<rect x="26.8" y="45.4" class="st1" width="21.6" height="2.2"/>
			</g>
			<g>
				<rect x="22.4" y="49.7" class="st1" width="2.2" height="2.2"/>
			</g>
			<g>
				<rect x="26.8" y="49.7" class="st1" width="21.6" height="2.2"/>
			</g>
		</g>
		<g>
			<rect x="46.2" y="56.2" class="st1" width="2.2" height="2.2"/>
		</g>
		<g>
			<rect x="35.4" y="56.2" class="st1" width="8.6" height="2.2"/>
		</g>
		<g>
			<path class="st1" d="M48.3,30.3H31.1v-6.5h17.3V30.3z M33.2,28.1h12.9V26H33.2V28.1z"/>
		</g>
	</g>
</g>
<g>
	<g>
		<g>
			<path class="st1" d="M67.7,74.5h-6.5V16l1.5-3h3.5l1.5,3V74.5z M63.4,72.3h2.2V16.5l-0.7-1.3h-0.8l-0.7,1.3V72.3z"/>
		</g>
		<g>
			<rect x="63.4" y="10.9" class="st1" width="2.2" height="3.2"/>
		</g>
		<g>
			<rect x="62.3" y="21.7" class="st1" width="4.3" height="2.2"/>
		</g>
		<g>
			<rect x="62.3" y="26" class="st1" width="4.3" height="2.2"/>
		</g>
		<g>
			<rect x="62.3" y="30.3" class="st1" width="4.3" height="2.2"/>
		</g>
		<g>
			<rect x="62.3" y="68" class="st1" width="4.3" height="2.2"/>
		</g>
	</g>
</g>
</svg>
