<?xml version="1.0" encoding="utf-8"?>
<!-- Generator: Adobe Illustrator 21.0.0, SVG Export Plug-In . SVG Version: 6.00 Build 0)  -->
<svg version="1.1" id="Camada_1" xmlns="http://www.w3.org/2000/svg" xmlns:xlink="http://www.w3.org/1999/xlink" x="0px" y="0px"
	 viewBox="0 0 85 78.5" style="enable-background:new 0 0 85 78.5;" xml:space="preserve">
<style type="text/css">
	.st0{fill:#BD65DF;}
	.st1{fill:#2B2D42;}
</style>
<g>
	<circle class="st0" cx="53.5" cy="29.3" r="21"/>
</g>
<g>
	<polygon class="st1" points="74.5,71.3 10.5,71.3 10.5,29.3 18.5,29.3 18.5,31.3 12.5,31.3 12.5,69.3 72.5,69.3 72.5,31.3 
		66.5,31.3 66.5,29.3 74.5,29.3 	"/>
</g>
<g>
	<polygon class="st1" points="64.5,40.3 62.5,40.3 62.5,16.7 55.1,9.3 22.5,9.3 22.5,40.3 20.5,40.3 20.5,7.3 55.9,7.3 64.5,15.8 	
		"/>
</g>
<g>
	<rect x="24.5" y="11.3" class="st1" width="28" height="2"/>
</g>
<g>
	<rect x="24.5" y="15.3" class="st1" width="28" height="2"/>
</g>
<g>
	<path class="st1" d="M73.5,71.3h-62c-0.4,0-0.8-0.3-0.9-0.7c-0.1-0.4,0-0.9,0.3-1.1l31-24c0.4-0.3,0.9-0.3,1.2,0l31,24
		c0.3,0.3,0.5,0.7,0.3,1.1C74.3,71,73.9,71.3,73.5,71.3z M14.4,69.3h56.1L42.5,47.5L14.4,69.3z"/>
</g>
<g>
	<rect x="20.5" y="26.1" transform="matrix(0.7071 -0.7071 0.7071 0.7071 -22.1638 26.9918)" class="st1" width="2" height="28.3"/>
</g>
<g>
	<rect x="49.4" y="39.3" transform="matrix(0.7071 -0.7071 0.7071 0.7071 -9.8623 56.6902)" class="st1" width="28.3" height="2"/>
</g>
<g>
	<polygon class="st1" points="63.5,17.3 54.5,17.3 54.5,8.3 56.5,8.3 56.5,15.3 63.5,15.3 	"/>
</g>
<g>
	<rect x="41.5" y="65.3" class="st1" width="2" height="2"/>
</g>
<g>
	<rect x="45.5" y="65.3" class="st1" width="2" height="2"/>
</g>
<g>
	<rect x="37.5" y="65.3" class="st1" width="2" height="2"/>
</g>
</svg>
