<?xml version="1.0" encoding="utf-8"?>
<!-- Generator: Adobe Illustrator 21.0.0, SVG Export Plug-In . SVG Version: 6.00 Build 0)  -->
<svg version="1.1" id="Camada_1" xmlns="http://www.w3.org/2000/svg" xmlns:xlink="http://www.w3.org/1999/xlink" x="0px" y="0px"
	 viewBox="0 0 85 78.5" style="enable-background:new 0 0 85 78.5;" xml:space="preserve">
<style type="text/css">
	.st0{fill:#BD65DF;}
	.st1{fill:#2B2D42;}
</style>
<g>
	<g>
		<g>
			<path class="st0" d="M55.3,49.1C55.3,63.4,43.7,75,29.4,75C15.1,75,3.6,63.4,3.6,49.1c0-14.3,11.6-25.9,25.9-25.9
				C43.7,23.3,55.3,34.8,55.3,49.1z"/>
		</g>
	</g>
	<g>
		<path class="st1" d="M45.4,70.1c-0.3,0-0.6-0.1-0.9-0.4L21.2,46.3l1.7-1.7l22.5,22.5l27.5-27.5c4.6-4.6,7-8.1,7-13.9
			c0-9.5-7.7-17.3-17.3-17.3c-4.6,0-9.2,2.3-13.9,7L46.3,18c-0.5,0.5-1.3,0.5-1.7,0l-2.5-2.5c-4.7-4.7-9.3-7-13.9-7
			c-9.5,0-17.3,7.7-17.3,17.3c0,4.5,1.3,7.7,4.6,11.5l-1.9,1.6c-3.7-4.2-5.2-8-5.2-13.1C8.5,14.8,17.3,6,28.2,6
			c5.2,0,10.5,2.6,15.7,7.8l1.6,1.6l1.6-1.6C52.2,8.6,57.5,6,62.7,6c10.9,0,19.7,8.8,19.7,19.7c0,6.6-2.8,10.7-7.8,15.7L46.3,69.7
			C46.1,70,45.8,70.1,45.4,70.1z"/>
	</g>
	<g>
		<path class="st1" d="M15.9,46.7H8.5v-2.5h6.7l9.5-16.6c0.2-0.4,0.6-0.6,1-0.6c0.4,0,0.8,0.2,1.1,0.5l8.8,13.2l8.8-13.2
			c0.5-0.7,1.6-0.7,2.1,0l8.8,13.1l8.9-15.5c0.2-0.4,0.6-0.6,1.1-0.6h7.4v2.5h-6.7l-9.5,16.6c-0.2,0.4-0.6,0.6-1,0.6
			c-0.4,0-0.8-0.2-1.1-0.5l-8.8-13.2l-8.8,13.2c-0.2,0.3-0.6,0.5-1,0.5l0,0c-0.4,0-0.8-0.2-1-0.5l-8.7-13.1L16.9,46
			C16.7,46.4,16.3,46.7,15.9,46.7z"/>
	</g>
	<g>
		<rect x="3.6" y="44.2" class="st1" width="2.5" height="2.5"/>
	</g>
	<g>
		<rect x="75" y="24.5" class="st1" width="2.5" height="2.5"/>
	</g>
	<g>
		<path class="st1" d="M18.3,25.7h-2.5c0-6.8,5.5-12.3,12.3-12.3v2.5C22.8,15.9,18.3,20.3,18.3,25.7z"/>
	</g>
</g>
</svg>
