<?xml version="1.0" encoding="utf-8"?>
<!-- Generator: Adobe Illustrator 21.0.0, SVG Export Plug-In . SVG Version: 6.00 Build 0)  -->
<svg version="1.1" id="Camada_1" xmlns="http://www.w3.org/2000/svg" xmlns:xlink="http://www.w3.org/1999/xlink" x="0px" y="0px"
	 viewBox="0 0 85 78.5" style="enable-background:new 0 0 85 78.5;" xml:space="preserve">
<style type="text/css">
	.st0{fill:#BD65DF;}
	.st1{fill:#2B2D42;}
</style>
<g>
	<g>
		<g>
			<circle class="st0" cx="51.2" cy="50.8" r="23.1"/>
		</g>
		<g>
			<path class="st1" d="M31.4,16.7c-3.6,0-6.6-3-6.6-6.6s3-6.6,6.6-6.6c3.6,0,6.6,3,6.6,6.6S35.1,16.7,31.4,16.7z M31.4,5.7
				c-2.4,0-4.4,2-4.4,4.4s2,4.4,4.4,4.4c2.4,0,4.4-2,4.4-4.4S33.9,5.7,31.4,5.7z"/>
		</g>
		<g>
			<path class="st1" d="M40.2,73.9H38V45.3h4.4V26.6c0-3-2.5-5.5-5.5-5.5h-11c-3,0-5.5,2.5-5.5,5.5v18.7h4.4v28.6h-2.2V47.5h-4.4
				V26.6c0-4.2,3.5-7.7,7.7-7.7h11c4.2,0,7.7,3.5,7.7,7.7v20.9h-4.4V73.9z"/>
		</g>
		<g>
			<rect x="30.3" y="49.7" class="st1" width="2.2" height="24.2"/>
		</g>
		<g>
			<path class="st1" d="M31.4,28.8c-0.3,0-0.6-0.1-0.8-0.3L25.2,23c-0.2-0.2-0.3-0.5-0.3-0.8v-4.4H27v3.9l4.4,4.4l4.4-4.4v-3.9H38
				v4.4c0,0.3-0.1,0.6-0.3,0.8l-5.5,5.5C32,28.7,31.7,28.8,31.4,28.8z"/>
		</g>
		<g>
			<rect x="30.3" y="27.7" class="st1" width="2.2" height="7.7"/>
		</g>
		<g>
			<circle class="st1" cx="31.4" cy="35.4" r="2.2"/>
		</g>
	</g>
</g>
</svg>
