<?xml version="1.0" encoding="utf-8"?>
<!-- Generator: Adobe Illustrator 21.0.0, SVG Export Plug-In . SVG Version: 6.00 Build 0)  -->
<svg version="1.1" id="Layer_1" xmlns="http://www.w3.org/2000/svg" xmlns:xlink="http://www.w3.org/1999/xlink" x="0px" y="0px"
	 viewBox="0 0 253.3 68" style="enable-background:new 0 0 253.3 68;" xml:space="preserve">
<style type="text/css">
	.st0{fill:#7933C4;}
	.st1{fill:#511E87;}
	.st2{enable-background:new    ;}
	.st3{fill:#2B2D42;}
</style>
<path class="st0" d="M19.2,65.5c2.6-2.5,4.7-4.9,6.1-7.2c1.4-2.3,2.3-4.6,2.8-6.9c0.5-2.2,0.6-4.4,0.4-6.5c-0.2-2.2-0.6-4.3-1-6.3
	c-0.6-2.1-1.1-4.1-1.7-6.3c-0.6-2-1-4.1-1.4-6.1c-0.3-2-0.4-4.1-0.2-6.1c0.2-2,0.8-4.1,1.8-6.3c1-2.1,2.6-4.2,4.8-6.4
	c-3,2.6-5.3,5.1-6.9,7.4c-1.6,2.3-2.6,4.6-3.1,6.8c-0.6,2.2-0.7,4.4-0.6,6.5c0.2,2.2,0.5,4.3,1,6.5c0.5,2.2,1,4.4,1.5,6.7
	c0.5,2.3,0.8,4.7,0.9,7.2c0.2,2.5-0.2,5.1-0.8,7.9C22,59.3,20.8,62.3,19.2,65.5L19.2,65.5z"/>
<path class="st1" d="M17.9,33.9c2.7-0.9,5.2-1.9,7.4-3s3.9-2.3,5.2-3.5c1,0.5,1.7,1.1,2,2c0.3,1-0.1,2.2-1.1,3.6
	c-1,1.3-2.6,2.6-4.6,3.8c-2.1,1.3-4.6,2.4-7.4,3.5C18.7,38.1,18.3,36,17.9,33.9L17.9,33.9z M36.2,29.5c-0.2-0.7-0.8-1.3-1.8-1.8
	c-0.9-0.4-2.1-0.7-3.6-0.8c0.7-0.7,1.3-1.4,1.5-2.1c0.3-0.7,0.3-1.3,0.2-1.9c-0.3-0.9-1-1.5-2.3-2c-1.3-0.4-3-0.7-4.9-0.7
	c0.9,0.2,1.7,0.6,2.2,1c0.6,0.4,1,0.9,1.1,1.5c0.3,1,0,2.1-0.9,3.2c-0.8,1.2-2.2,2.4-3.9,3.5c-1.8,1.2-3.8,2.2-6.3,3.3
	c-0.3-2.4-0.5-4.8-0.3-7.3c0.2-2.5,0.8-5,1.7-7.5c1-2.5,2.5-5.1,4.5-7.8s4.7-5.3,8.1-8.1c-5.3,3.4-9.4,6.7-12.4,10.1
	c-2.9,3.4-4.8,6.9-5.6,10.5c-0.8,3.6-0.6,7.4,0.6,11.3c-0.5,0.2-1,0.3-1.5,0.5C11,34.9,9.5,35.3,8,35.5c-1.5,0.3-3,0.5-4.3,0.6
	c1.5,0,3.1-0.1,5-0.3c1.8-0.2,3.7-0.6,5.8-1.1c0.6,2,1.5,4,2.6,6.1c-0.2,0.1-0.5,0.2-0.7,0.2c-1.6,0.5-3.1,0.8-4.7,1.1
	c-1.5,0.3-3,0.5-4.3,0.6c1.5,0,3-0.1,4.8-0.3c1.7-0.2,3.5-0.6,5.4-1c1.1,2,2.5,4.1,3.9,6.3c-0.6-2.2-1.2-4.5-1.9-6.8
	c0.2-0.1,0.4-0.2,0.6-0.2c2.5-0.7,4.8-1.6,6.9-2.5c2-1,3.8-2,5.3-3c1.5-1,2.6-2,3.3-3.1C36.2,31.4,36.5,30.4,36.2,29.5L36.2,29.5z"
	/>
<g class="st2">
	<path class="st3" d="M42,41l3.9-18.1l4.2-0.6l-3.4,16c0.5,0.4,1.1,0.6,1.6,0.6c0.6,0,1.1-0.2,1.6-0.5c0.5-0.4,0.9-0.8,1.3-1.4
		s0.8-1.3,1.1-2.1s0.6-1.7,0.8-2.6c0.2-0.9,0.4-1.9,0.5-2.9s0.2-2,0.2-2.9s-0.1-1.8-0.3-2.5s-0.5-1.2-0.8-1.7
		c-0.4-0.4-0.8-0.7-1.3-0.9s-1.1-0.3-1.7-0.3c-1.1,0-2,0.2-2.9,0.5s-1.7,0.8-2.4,1.4c-0.7,0.6-1.2,1.3-1.6,2.2s-0.6,1.8-0.6,2.9
		c0,0.4,0,0.7,0.1,0.9c0,0.2,0.1,0.4,0.1,0.5s0.1,0.2,0.1,0.3s0.1,0.1,0.1,0.2c-1,0-1.7-0.2-2.2-0.6c-0.5-0.4-0.8-1.1-0.8-2
		c0-0.6,0.1-1.3,0.4-1.9s0.6-1.2,1.1-1.8s1-1.1,1.7-1.5c0.6-0.5,1.4-0.9,2.2-1.2c0.8-0.3,1.6-0.6,2.5-0.8s1.8-0.3,2.8-0.3
		c0.9,0,1.7,0.1,2.5,0.3c0.7,0.2,1.4,0.5,1.9,0.9c0.6,0.4,1,0.8,1.5,1.3c0.4,0.5,0.7,1.1,1,1.7c0.3,0.6,0.4,1.3,0.6,1.9
		c0.1,0.7,0.2,1.4,0.2,2.1c0,1.1-0.1,2.2-0.3,3.3c-0.2,1.1-0.5,2.1-0.8,3.1s-0.8,1.9-1.3,2.8s-1,1.6-1.6,2.3
		c-0.6,0.6-1.2,1.1-1.9,1.5s-1.3,0.5-2.1,0.5c-0.6,0-1.1-0.1-1.7-0.4s-1.2-0.6-1.8-1.2l-0.2,1.1H42V41z"/>
	<path class="st3" d="M57.2,41l3-14.2h4.1l-0.4,1.8c0.3-0.2,0.5-0.4,0.8-0.7c0.3-0.2,0.5-0.4,0.8-0.6c0.3-0.2,0.6-0.3,0.9-0.4
		c0.3-0.1,0.6-0.2,1-0.2c0.3,0,0.6,0.1,0.9,0.2c0.2,0.1,0.5,0.3,0.6,0.5s0.3,0.4,0.4,0.7s0.1,0.5,0.1,0.8s0,0.5-0.1,0.7
		s-0.2,0.5-0.4,0.7s-0.4,0.4-0.6,0.5S67.7,31,67.4,31c-0.3,0-0.5,0-0.6-0.1s-0.3-0.2-0.3-0.3s-0.1-0.3-0.2-0.5
		c0-0.2-0.1-0.3-0.1-0.5c0-0.1-0.1-0.3-0.1-0.3c-0.1-0.1-0.2-0.1-0.3-0.1c-0.4,0-0.8,0.1-1.1,0.3s-0.6,0.5-1,0.8l-2.3,10.8h-4.2V41z
		"/>
	<path class="st3" d="M80.6,36.5c0,0.2-0.1,0.3-0.1,0.5s0,0.3,0,0.5c0,0.4,0.1,0.7,0.3,0.8c0.2,0.2,0.5,0.2,0.9,0.2
		c0.1,0,0.2,0,0.3,0s0.2-0.1,0.3-0.1c-0.2,0.5-0.4,0.9-0.6,1.3c-0.2,0.4-0.4,0.7-0.6,0.9c-0.2,0.2-0.5,0.4-0.7,0.5s-0.6,0.2-1,0.2
		c-0.8,0-1.4-0.2-1.9-0.7s-0.8-1.1-0.9-2c-0.2,0.3-0.5,0.6-0.7,1c-0.3,0.3-0.6,0.6-0.9,0.8c-0.3,0.3-0.7,0.5-1.2,0.6
		c-0.4,0.2-0.9,0.2-1.4,0.2s-1-0.1-1.4-0.2c-0.5-0.2-0.9-0.4-1.2-0.8s-0.6-0.8-0.8-1.4s-0.3-1.3-0.3-2.1c0-0.6,0.1-1.3,0.2-2.1
		s0.3-1.5,0.6-2.2c0.3-0.7,0.6-1.5,1-2.1s0.9-1.3,1.4-1.8s1.2-0.9,1.8-1.3c0.7-0.3,1.4-0.5,2.3-0.5c0.8,0,1.4,0.1,1.8,0.4
		c0.4,0.3,0.5,0.6,0.5,1v0.2l0.3-1.5h4.1L80.6,36.5z M78,29.5c0-0.1,0-0.2-0.1-0.3c0-0.1-0.1-0.2-0.2-0.4c-0.1-0.1-0.2-0.2-0.4-0.3
		c-0.1-0.1-0.3-0.1-0.6-0.1c-0.4,0-0.8,0.1-1.1,0.4s-0.7,0.6-1,1s-0.6,0.9-0.8,1.5c-0.2,0.5-0.4,1.1-0.6,1.7
		c-0.2,0.6-0.3,1.1-0.4,1.7c-0.1,0.6-0.1,1.1-0.1,1.5c0,0.5,0.1,1,0.2,1.3s0.2,0.5,0.4,0.7c0.1,0.1,0.3,0.2,0.5,0.3
		c0.2,0,0.3,0,0.4,0c0.2,0,0.4-0.1,0.7-0.2c0.2-0.1,0.5-0.3,0.7-0.5s0.4-0.5,0.6-0.8c0.2-0.3,0.3-0.7,0.4-1.1L78,29.5z"/>
	<path class="st3" d="M87.7,38.9c0,0.3-0.1,0.6-0.2,0.9s-0.3,0.5-0.5,0.7s-0.5,0.4-0.7,0.5s-0.6,0.2-0.9,0.2s-0.6-0.1-0.9-0.2
		s-0.5-0.3-0.7-0.5s-0.4-0.4-0.5-0.7c-0.1-0.3-0.2-0.6-0.2-0.9s0.1-0.6,0.2-0.9c0.1-0.3,0.3-0.5,0.5-0.7s0.4-0.4,0.7-0.5
		s0.6-0.2,0.9-0.2s0.6,0.1,0.9,0.2c0.3,0.1,0.5,0.3,0.7,0.5s0.4,0.4,0.5,0.7S87.7,38.6,87.7,38.9z"/>
</g>
<g class="st2">
	<path class="st3" d="M114.4,20.1l-4.6,21.3h-3.9l-3.3-14.1l-3.3,14.1h-2.7l4.3-19.5c-1.3,0.5-2.3,1.2-3,2.2s-1,2.2-1,3.5
		c0,0.6,0.1,1.2,0.2,1.7s0.3,0.9,0.6,1.2c-1.2,0-2.1-0.2-2.7-0.7s-0.9-1.3-0.9-2.3c0-0.7,0.1-1.3,0.3-2c0.2-0.6,0.5-1.2,0.9-1.8
		c0.4-0.6,0.8-1.1,1.4-1.5c0.5-0.5,1.1-0.9,1.8-1.2c0.6-0.3,1.3-0.6,2.1-0.8c0.7-0.2,1.5-0.3,2.3-0.3c0.4,0,0.8,0,1.2,0.1
		s0.7,0.2,1.1,0.3l3.4,15.2l3.2-15.5h2.6V20.1z"/>
	<path class="st3" d="M121.8,36.3c-0.3,0.8-0.6,1.4-0.9,2c-0.3,0.6-0.7,1-1,1.4c-0.4,0.4-0.7,0.7-1.1,0.9c-0.4,0.2-0.7,0.4-1.1,0.6
		c-0.4,0.1-0.7,0.2-1,0.3c-0.3,0-0.6,0.1-0.9,0.1c-0.4,0-0.8-0.1-1.2-0.2s-0.7-0.3-1-0.6s-0.5-0.6-0.6-1.1s-0.2-0.9-0.2-1.5
		c0-0.3,0-0.5,0.1-0.9s0.1-0.6,0.2-1l1.9-9.1h4.1l-2,9.7c0,0.2-0.1,0.3-0.1,0.5s0,0.3,0,0.5c0,0.4,0.1,0.7,0.3,0.8
		c0.2,0.2,0.5,0.2,0.9,0.2c0.3,0,0.5-0.1,0.8-0.2s0.5-0.3,0.7-0.5s0.4-0.5,0.6-0.8c0.2-0.3,0.3-0.6,0.4-1h1.1V36.3z M120,23.4
		c0,0.3-0.1,0.6-0.2,0.9c-0.1,0.3-0.3,0.5-0.5,0.7s-0.5,0.4-0.7,0.5c-0.3,0.1-0.6,0.2-0.9,0.2c-0.3,0-0.6-0.1-0.9-0.2
		c-0.3-0.1-0.5-0.3-0.7-0.5s-0.4-0.4-0.5-0.7c-0.1-0.3-0.2-0.6-0.2-0.9s0.1-0.6,0.2-0.9c0.1-0.3,0.3-0.5,0.5-0.7s0.4-0.4,0.7-0.5
		s0.6-0.2,0.9-0.2c0.3,0,0.6,0.1,0.9,0.2s0.5,0.3,0.7,0.5s0.4,0.4,0.5,0.7C120,22.8,120,23,120,23.4z"/>
	<path class="st3" d="M122.5,27.1h4.1l-2,9.7c0,0.2-0.1,0.4-0.1,0.6s0,0.3,0,0.5c0,0.3,0.1,0.5,0.2,0.7c0.2,0.2,0.4,0.3,0.7,0.3
		c0.5,0,0.9-0.2,1.3-0.5s0.8-0.8,1.2-1.3s0.7-1.1,1-1.8c0.3-0.7,0.5-1.4,0.8-2.1s0.4-1.4,0.5-2.1s0.2-1.3,0.2-1.8l-0.1,0.1
		c-0.1,0-0.2,0.1-0.3,0.1s-0.2,0-0.3,0s-0.2,0-0.2,0c-0.2,0-0.3,0-0.4-0.1c-0.1-0.1-0.2-0.2-0.3-0.3c-0.1-0.1-0.2-0.3-0.2-0.5
		s-0.1-0.3-0.1-0.5c0-0.4,0.1-0.8,0.4-1.1c0.3-0.3,0.7-0.4,1.3-0.4c0.3,0,0.6,0.1,0.9,0.2c0.2,0.1,0.4,0.3,0.5,0.6s0.2,0.5,0.3,0.8
		s0.1,0.6,0.1,0.9c0,0.8-0.1,1.6-0.2,2.5c-0.1,0.9-0.3,1.8-0.6,2.8c-0.3,0.9-0.6,1.8-1.1,2.7c-0.4,0.9-0.9,1.6-1.6,2.3
		c-0.6,0.7-1.3,1.2-2.1,1.6s-1.7,0.6-2.6,0.6c-1.1,0-1.9-0.3-2.6-0.8s-0.9-1.4-0.9-2.5c0-0.2,0-0.4,0-0.6s0.1-0.5,0.1-0.8
		L122.5,27.1z"/>
	<path class="st3" d="M141.2,36.3c-0.3,0.8-0.6,1.4-0.9,2c-0.3,0.6-0.7,1-1,1.4c-0.4,0.4-0.7,0.7-1.1,0.9s-0.7,0.4-1.1,0.6
		s-0.7,0.2-1,0.3c-0.3,0-0.6,0.1-0.9,0.1c-0.4,0-0.8-0.1-1.2-0.2s-0.7-0.3-1-0.6s-0.5-0.6-0.6-1.1c-0.2-0.4-0.2-0.9-0.2-1.5
		c0-0.3,0-0.5,0.1-0.9s0.1-0.6,0.2-1l1.9-9.1h4.1l-2,9.7c0,0.2-0.1,0.3-0.1,0.5s0,0.3,0,0.5c0,0.4,0.1,0.7,0.3,0.8
		c0.2,0.2,0.5,0.2,0.9,0.2c0.3,0,0.5-0.1,0.8-0.2s0.5-0.3,0.7-0.5s0.4-0.5,0.6-0.8c0.2-0.3,0.3-0.6,0.4-1h1.1V36.3z M139.4,23.4
		c0,0.3-0.1,0.6-0.2,0.9c-0.1,0.3-0.3,0.5-0.5,0.7s-0.5,0.4-0.7,0.5c-0.3,0.1-0.6,0.2-0.9,0.2s-0.6-0.1-0.9-0.2
		c-0.3-0.1-0.5-0.3-0.7-0.5s-0.4-0.4-0.5-0.7c-0.1-0.3-0.2-0.6-0.2-0.9s0.1-0.6,0.2-0.9c0.1-0.3,0.3-0.5,0.5-0.7s0.4-0.4,0.7-0.5
		s0.6-0.2,0.9-0.2s0.6,0.1,0.9,0.2s0.5,0.3,0.7,0.5s0.4,0.4,0.5,0.7C139.4,22.8,139.4,23,139.4,23.4z"/>
	<path class="st3" d="M151.6,36.8c0,0.2-0.1,0.3-0.1,0.5s0,0.3,0,0.5c0,0.4,0.1,0.7,0.3,0.8c0.2,0.2,0.5,0.2,0.9,0.2
		c0.1,0,0.2,0,0.3,0s0.2-0.1,0.3-0.1c-0.2,0.5-0.4,0.9-0.6,1.3c-0.2,0.4-0.4,0.7-0.6,0.9c-0.2,0.2-0.5,0.4-0.7,0.5s-0.6,0.2-1,0.2
		c-0.8,0-1.4-0.2-1.9-0.7s-0.8-1.1-0.9-2c-0.2,0.3-0.5,0.6-0.7,1c-0.3,0.3-0.6,0.6-0.9,0.8c-0.3,0.3-0.7,0.5-1.2,0.6
		s-0.9,0.2-1.4,0.2s-1-0.1-1.4-0.2c-0.5-0.2-0.9-0.4-1.2-0.8c-0.4-0.4-0.6-0.8-0.8-1.4s-0.3-1.3-0.3-2.1c0-0.6,0.1-1.3,0.2-2.1
		c0.1-0.7,0.3-1.5,0.6-2.2c0.3-0.7,0.6-1.5,1-2.1c0.4-0.7,0.9-1.3,1.4-1.8s1.2-0.9,1.8-1.3s1.4-0.5,2.3-0.5c0.8,0,1.4,0.1,1.8,0.4
		s0.5,0.6,0.5,1v0.2l0.3-1.5h4.1L151.6,36.8z M149,29.9c0-0.1,0-0.2-0.1-0.3c0-0.1-0.1-0.2-0.2-0.4c-0.1-0.1-0.2-0.2-0.4-0.3
		c-0.1-0.1-0.3-0.1-0.6-0.1c-0.4,0-0.8,0.1-1.1,0.4c-0.4,0.3-0.7,0.6-1,1s-0.6,0.9-0.8,1.5c-0.2,0.6-0.4,1.1-0.6,1.7
		c-0.2,0.6-0.3,1.1-0.4,1.7c-0.1,0.6-0.1,1.1-0.1,1.5c0,0.5,0.1,1,0.2,1.3c0.1,0.3,0.2,0.5,0.4,0.7c0.1,0.1,0.3,0.2,0.5,0.3
		c0.2,0,0.3,0,0.4,0c0.2,0,0.4-0.1,0.7-0.2s0.5-0.3,0.7-0.5s0.4-0.5,0.6-0.8c0.2-0.3,0.3-0.7,0.4-1.1L149,29.9z"/>
</g>
<g class="st2">
	<path class="st3" d="M166.5,41.4L166,21.9c-1.3,0.5-2.4,1.3-3.1,2.4s-1.1,2.4-1.1,4c0,0.4,0,0.7,0.1,0.9c0,0.2,0.1,0.4,0.1,0.5
		s0.1,0.2,0.1,0.3s0.1,0.1,0.1,0.2c-0.5,0-0.9,0-1.3-0.1c-0.4-0.1-0.7-0.3-1-0.5s-0.4-0.5-0.6-0.8c-0.1-0.4-0.2-0.8-0.2-1.3
		c0-0.6,0.1-1.3,0.4-1.9s0.6-1.2,1.1-1.7s1-1.1,1.7-1.5c0.6-0.5,1.3-0.9,2.1-1.2c0.7-0.3,1.5-0.6,2.3-0.8c0.8-0.2,1.6-0.3,2.4-0.3
		c0.2,0,0.4,0,0.6,0s0.4,0,0.5,0l0.3,17.5l6-17.4h2l-7.9,21.2H166.5z"/>
	<path class="st3" d="M185.3,36.3c-0.3,0.8-0.6,1.4-0.9,2c-0.3,0.6-0.7,1-1,1.4c-0.4,0.4-0.7,0.7-1.1,0.9c-0.4,0.2-0.7,0.4-1.1,0.6
		c-0.4,0.1-0.7,0.2-1,0.3c-0.3,0-0.6,0.1-0.9,0.1c-0.4,0-0.8-0.1-1.2-0.2c-0.4-0.1-0.7-0.3-1-0.6s-0.5-0.6-0.6-1.1s-0.2-0.9-0.2-1.5
		c0-0.3,0-0.5,0.1-0.9s0.1-0.6,0.2-1l1.9-9.1h4.1l-2,9.7c0,0.2-0.1,0.3-0.1,0.5s0,0.3,0,0.5c0,0.4,0.1,0.7,0.3,0.8
		c0.2,0.2,0.5,0.2,0.9,0.2c0.3,0,0.5-0.1,0.8-0.2s0.5-0.3,0.7-0.5s0.4-0.5,0.6-0.8c0.2-0.3,0.3-0.6,0.4-1h1.1V36.3z M183.5,23.3
		c0,0.3-0.1,0.6-0.2,0.9c-0.1,0.3-0.3,0.5-0.5,0.7s-0.5,0.4-0.7,0.5c-0.3,0.1-0.6,0.2-0.9,0.2c-0.3,0-0.6-0.1-0.9-0.2
		c-0.3-0.1-0.5-0.3-0.7-0.5s-0.4-0.4-0.5-0.7c-0.1-0.3-0.2-0.6-0.2-0.9s0.1-0.6,0.2-0.9c0.1-0.3,0.3-0.5,0.5-0.7s0.4-0.4,0.7-0.5
		s0.6-0.2,0.9-0.2c0.3,0,0.6,0.1,0.9,0.2s0.5,0.3,0.7,0.5s0.4,0.4,0.5,0.7C183.5,22.7,183.5,23,183.5,23.3z"/>
	<path class="st3" d="M199.7,36.3c-0.4,1.2-0.8,2.1-1.3,2.8s-0.9,1.2-1.4,1.6c-0.5,0.4-0.9,0.6-1.4,0.7s-0.9,0.2-1.2,0.2
		c-0.6,0-1.2-0.1-1.6-0.3c-0.4-0.2-0.8-0.4-1-0.7c-0.3-0.3-0.4-0.6-0.6-1c-0.1-0.4-0.2-0.8-0.2-1.2c0-0.5,0.1-1,0.2-1.7
		c0.1-0.6,0.3-1.3,0.4-2c0.2-0.7,0.3-1.3,0.4-2c0.1-0.6,0.2-1.2,0.2-1.6c0-1-0.3-1.5-1-1.5c-0.3,0-0.5,0.1-0.7,0.2s-0.4,0.3-0.6,0.6
		c-0.2,0.2-0.4,0.5-0.5,0.8s-0.3,0.7-0.4,1l-1.9,9.1H183l3-14.2h4.1l-0.3,1.5c0.3-0.3,0.6-0.6,0.9-0.8c0.3-0.2,0.6-0.4,0.9-0.5
		c0.3-0.1,0.6-0.2,0.8-0.2c0.3,0,0.5-0.1,0.7-0.1c0.5,0,0.9,0.1,1.3,0.2c0.4,0.1,0.7,0.3,1,0.6c0.3,0.3,0.5,0.6,0.7,1
		s0.2,0.9,0.2,1.5c0,0.4,0,0.8-0.1,1.2s-0.2,0.9-0.3,1.3s-0.2,0.9-0.3,1.4s-0.2,0.9-0.3,1.3c-0.1,0.4-0.2,0.8-0.3,1.2
		s-0.1,0.7-0.1,0.9c0,0.4,0.1,0.6,0.2,0.9s0.5,0.3,0.9,0.3c0.3,0,0.6-0.1,0.8-0.2c0.2-0.1,0.4-0.3,0.6-0.5s0.4-0.5,0.5-0.8
		c0.2-0.3,0.3-0.7,0.5-1H199.7z"/>
	<path class="st3" d="M214.1,36.3c-0.4,1.2-0.8,2.1-1.3,2.8s-0.9,1.2-1.4,1.6c-0.5,0.4-0.9,0.6-1.4,0.7s-0.9,0.2-1.2,0.2
		c-0.6,0-1.2-0.1-1.6-0.3c-0.4-0.2-0.8-0.4-1-0.7c-0.3-0.3-0.4-0.6-0.6-1c-0.1-0.4-0.2-0.8-0.2-1.2c0-0.5,0.1-1,0.2-1.7
		s0.3-1.3,0.4-2c0.2-0.7,0.3-1.3,0.4-2c0.1-0.6,0.2-1.2,0.2-1.6c0-1-0.3-1.5-1-1.5c-0.3,0-0.5,0.1-0.7,0.2s-0.4,0.3-0.6,0.6
		c-0.2,0.2-0.4,0.5-0.5,0.8s-0.3,0.7-0.4,1l-1.9,9.1h-4.1l4.1-19.4l4.2-0.6l-1.5,7.2c0.3-0.3,0.6-0.6,0.9-0.8
		c0.3-0.2,0.6-0.4,0.9-0.5s0.6-0.2,0.8-0.2c0.3,0,0.5-0.1,0.7-0.1c0.5,0,0.9,0.1,1.3,0.2c0.4,0.1,0.7,0.3,1,0.6s0.5,0.6,0.7,1
		s0.2,0.9,0.2,1.5c0,0.4,0,0.8-0.1,1.2s-0.2,0.9-0.3,1.3s-0.2,0.9-0.3,1.4s-0.2,0.9-0.3,1.3c-0.1,0.4-0.2,0.8-0.3,1.2
		s-0.1,0.7-0.1,0.9c0,0.4,0.1,0.6,0.2,0.9s0.5,0.3,0.9,0.3c0.3,0,0.6-0.1,0.8-0.2c0.2-0.1,0.4-0.3,0.6-0.5s0.4-0.5,0.5-0.8
		c0.2-0.3,0.3-0.7,0.5-1h1.3V36.3z"/>
	<path class="st3" d="M228.9,30.6c-0.6,0.6-1.3,1.1-2.2,1.5c-0.9,0.4-1.8,0.7-2.9,0.9c-0.1,1.3-0.4,2.5-0.8,3.6
		c-0.4,1.1-0.9,2-1.5,2.7s-1.3,1.3-2.1,1.7s-1.6,0.6-2.5,0.6c-0.7,0-1.3-0.1-1.8-0.2c-0.6-0.2-1-0.4-1.4-0.8
		c-0.4-0.4-0.7-0.8-0.9-1.4c-0.2-0.6-0.3-1.3-0.3-2.1c0-0.6,0.1-1.2,0.2-1.9c0.1-0.7,0.3-1.4,0.6-2.2s0.6-1.5,1-2.2s0.9-1.4,1.5-1.9
		c0.6-0.6,1.3-1,2-1.4s1.6-0.5,2.6-0.5c2.4,0,3.7,1.5,3.7,4.5l0,0h0.1c0,0,0.1,0,0.2,0c0.3,0,0.7,0,1.1-0.1c0.4-0.1,0.8-0.2,1.2-0.4
		c0.4-0.2,0.8-0.3,1.1-0.5s0.7-0.4,1-0.6L228.9,30.6z M221.5,33c-0.3-0.1-0.5-0.2-0.6-0.4s-0.2-0.5-0.2-0.8c0-0.4,0.1-0.7,0.2-1
		c0.2-0.3,0.4-0.4,0.6-0.6c0-0.3-0.1-0.6-0.1-0.8s-0.1-0.4-0.2-0.5s-0.2-0.2-0.3-0.3s-0.3-0.1-0.5-0.1c-0.3,0-0.7,0.1-1,0.4
		s-0.6,0.6-0.9,1.1c-0.3,0.4-0.5,0.9-0.8,1.5c-0.2,0.6-0.4,1.1-0.6,1.7c-0.2,0.6-0.3,1.2-0.4,1.8c-0.1,0.6-0.1,1.1-0.1,1.6
		s0,0.9,0.1,1.2s0.1,0.5,0.3,0.7s0.3,0.3,0.5,0.4c0.2,0.1,0.4,0.1,0.7,0.1s0.7-0.2,1-0.5s0.7-0.7,1-1.3s0.6-1.2,0.8-1.9
		S221.3,33.8,221.5,33z"/>
	<path class="st3" d="M234.2,36.3c-0.3,0.8-0.6,1.4-0.9,2c-0.3,0.6-0.7,1-1,1.4c-0.4,0.4-0.7,0.7-1.1,0.9s-0.7,0.4-1.1,0.6
		s-0.7,0.2-1,0.3c-0.3,0-0.6,0.1-0.9,0.1c-0.4,0-0.8-0.1-1.2-0.2c-0.4-0.1-0.7-0.3-1-0.6s-0.5-0.6-0.6-1.1c-0.2-0.4-0.2-0.9-0.2-1.5
		c0-0.3,0-0.5,0.1-0.9s0.1-0.6,0.2-1l3-14.3l4.2-0.6l-3.3,15.4c0,0.2-0.1,0.3-0.1,0.5s0,0.3,0,0.5c0,0.4,0.1,0.7,0.3,0.8
		c0.2,0.2,0.5,0.2,0.9,0.2c0.3,0,0.5-0.1,0.8-0.2c0.3-0.1,0.5-0.3,0.7-0.5s0.4-0.5,0.6-0.8c0.2-0.3,0.3-0.6,0.4-1H234.2z"/>
	<path class="st3" d="M244.6,36.8c0,0.2-0.1,0.3-0.1,0.5s0,0.3,0,0.5c0,0.4,0.1,0.7,0.3,0.8c0.2,0.2,0.5,0.2,0.9,0.2
		c0.1,0,0.2,0,0.3,0s0.2-0.1,0.3-0.1c-0.2,0.5-0.4,0.9-0.6,1.3c-0.2,0.4-0.4,0.7-0.6,0.9c-0.2,0.2-0.5,0.4-0.7,0.5s-0.6,0.2-1,0.2
		c-0.8,0-1.4-0.2-1.9-0.7s-0.8-1.1-0.9-2c-0.2,0.3-0.5,0.6-0.7,1c-0.3,0.3-0.6,0.6-0.9,0.8c-0.3,0.3-0.7,0.5-1.2,0.6
		s-0.9,0.2-1.4,0.2s-1-0.1-1.4-0.2c-0.5-0.2-0.9-0.4-1.2-0.8c-0.4-0.4-0.6-0.8-0.8-1.4c-0.2-0.6-0.3-1.3-0.3-2.1
		c0-0.6,0.1-1.3,0.2-2.1c0.1-0.7,0.3-1.5,0.6-2.2c0.3-0.7,0.6-1.5,1-2.1c0.4-0.7,0.9-1.3,1.4-1.8s1.2-0.9,1.8-1.3s1.4-0.5,2.3-0.5
		c0.8,0,1.4,0.1,1.8,0.4s0.5,0.6,0.5,1v0.2l0.3-1.5h4.1L244.6,36.8z M242,29.8c0-0.1,0-0.2-0.1-0.3c0-0.1-0.1-0.2-0.2-0.4
		c-0.1-0.1-0.2-0.2-0.4-0.3c-0.1-0.1-0.3-0.1-0.6-0.1c-0.4,0-0.8,0.1-1.1,0.4c-0.4,0.3-0.7,0.6-1,1s-0.6,0.9-0.8,1.5
		c-0.2,0.6-0.4,1.1-0.6,1.7c-0.2,0.6-0.3,1.1-0.4,1.7c-0.1,0.6-0.1,1.1-0.1,1.5c0,0.5,0.1,1,0.2,1.3c0.1,0.3,0.2,0.5,0.4,0.7
		c0.1,0.1,0.3,0.2,0.5,0.3c0.2,0,0.3,0,0.4,0c0.2,0,0.4-0.1,0.7-0.2s0.5-0.3,0.7-0.5s0.4-0.5,0.6-0.8c0.2-0.3,0.3-0.7,0.4-1.1
		L242,29.8z"/>
</g>
<g class="st2">
	<path d="M45.8,55.5c-0.1,0.8-0.4,1.4-0.9,1.8s-1.1,0.6-1.9,0.6c-0.9,0-1.6-0.3-2.1-0.9c-0.5-0.6-0.8-1.5-0.8-2.5v-0.7
		c0-0.7,0.1-1.3,0.4-1.8c0.2-0.5,0.6-0.9,1-1.2s1-0.4,1.6-0.4c0.8,0,1.4,0.2,1.9,0.7s0.7,1,0.8,1.8h-1c-0.1-0.6-0.3-1-0.5-1.3
		s-0.7-0.4-1.2-0.4c-0.6,0-1.1,0.2-1.5,0.7s-0.5,1.1-0.5,2v0.7c0,0.8,0.2,1.4,0.5,1.9s0.8,0.7,1.4,0.7c0.5,0,1-0.1,1.2-0.4
		s0.5-0.7,0.6-1.3L45.8,55.5L45.8,55.5z"/>
	<path d="M49.6,53.2c-0.1,0-0.3,0-0.5,0c-0.6,0-1,0.3-1.2,0.8v3.9H47v-5.5h0.9V53c0.3-0.5,0.7-0.7,1.3-0.7c0.2,0,0.3,0,0.4,0.1V53.2
		z"/>
	<path d="M52.7,58c-0.7,0-1.3-0.2-1.8-0.7s-0.7-1.1-0.7-2v-0.2c0-0.5,0.1-1,0.3-1.5c0.2-0.4,0.5-0.8,0.9-1s0.8-0.4,1.2-0.4
		c0.7,0,1.3,0.2,1.7,0.7s0.6,1.1,0.6,2v0.4h-3.7c0,0.5,0.2,1,0.5,1.3s0.7,0.5,1.1,0.5c0.3,0,0.6-0.1,0.8-0.2
		c0.2-0.1,0.4-0.3,0.6-0.5l0.6,0.4C54.3,57.6,53.6,58,52.7,58z M52.6,53.1c-0.4,0-0.7,0.1-1,0.4s-0.4,0.7-0.5,1.2h2.7v-0.1
		c0-0.5-0.2-0.8-0.4-1.1C53.3,53.2,52.9,53.1,52.6,53.1z"/>
	<path d="M56.3,57.9v-4.7h-0.9v-0.8h0.9v-0.6c0-0.6,0.2-1,0.5-1.4s0.8-0.5,1.3-0.5c0.2,0,0.4,0,0.6,0.1v0.8c-0.2,0-0.3,0-0.5,0
		c-0.3,0-0.5,0.1-0.7,0.3s-0.2,0.4-0.2,0.8v0.6h1.2v0.7h-1.2v4.7L56.3,57.9L56.3,57.9z"/>
	<path d="M59.5,50.9c0-0.2,0-0.3,0.1-0.4s0.2-0.2,0.4-0.2s0.3,0.1,0.4,0.2c0.1,0.1,0.1,0.2,0.1,0.4s0,0.3-0.1,0.4
		c-0.1,0.1-0.2,0.2-0.4,0.2s-0.3-0.1-0.4-0.2C59.5,51.2,59.5,51.1,59.5,50.9z M60.5,57.9h-0.9v-5.5h0.9V57.9z"/>
	<path d="M63.3,51.1v1.3h1v0.7h-1v3.4c0,0.2,0,0.4,0.1,0.5s0.2,0.2,0.5,0.2c0.1,0,0.3,0,0.4-0.1v0.8C64.1,58,63.8,58,63.6,58
		c-0.4,0-0.7-0.1-0.9-0.4c-0.2-0.3-0.3-0.6-0.3-1.1v-3.4h-1v-0.7h1v-1.3H63.3z"/>
	<path d="M65,55.1c0-0.5,0.1-1,0.3-1.4s0.5-0.8,0.9-1s0.8-0.3,1.3-0.3c0.7,0,1.3,0.3,1.8,0.8s0.7,1.2,0.7,2.1v0.1
		c0,0.5-0.1,1-0.3,1.4s-0.5,0.8-0.9,1s-0.8,0.4-1.3,0.4c-0.7,0-1.3-0.3-1.8-0.8S65,56,65,55.1L65,55.1z M66,55.2
		c0,0.6,0.1,1.1,0.4,1.5s0.7,0.6,1.1,0.6c0.5,0,0.9-0.2,1.1-0.6c0.3-0.4,0.4-0.9,0.4-1.6c0-0.6-0.1-1.1-0.4-1.5
		c-0.3-0.4-0.7-0.6-1.1-0.6c-0.5,0-0.8,0.2-1.1,0.6S66,54.5,66,55.2z"/>
</g>
<g class="st2">
	<path d="M75.3,53.5h0.8c0.4,0,0.6-0.1,0.8-0.3s0.3-0.4,0.3-0.7s-0.1-0.5-0.3-0.7s-0.4-0.2-0.7-0.2s-0.5,0.1-0.7,0.2
		s-0.3,0.4-0.3,0.6h-1.5c0-0.4,0.1-0.7,0.3-1s0.5-0.5,0.9-0.7s0.8-0.3,1.2-0.3c0.8,0,1.4,0.2,1.8,0.6c0.4,0.4,0.7,0.9,0.7,1.5
		c0,0.3-0.1,0.6-0.3,0.9s-0.5,0.5-0.8,0.7c0.4,0.1,0.7,0.4,0.9,0.7s0.3,0.6,0.3,1.1c0,0.7-0.2,1.2-0.7,1.6c-0.5,0.4-1.1,0.6-1.9,0.6
		c-0.7,0-1.3-0.2-1.8-0.6c-0.5-0.4-0.7-0.9-0.7-1.5h1.5c0,0.3,0.1,0.5,0.3,0.7s0.5,0.3,0.8,0.3s0.6-0.1,0.8-0.3s0.3-0.4,0.3-0.7
		c0-0.7-0.4-1.1-1.2-1.1h-0.8L75.3,53.5L75.3,53.5z"/>
	<path d="M80.2,58.5h-1.1l2.7-8h1.1L80.2,58.5z"/>
	<path d="M87.9,55.1h0.8v1.2h-0.8v1.6h-1.5v-1.6h-3l-0.1-0.9l3.1-4.8h1.5V55.1z M84.8,55.1h1.6v-2.6l-0.1,0.2L84.8,55.1z"/>
	<path d="M94.6,57.9h-5v-1l2.4-2.5c0.3-0.4,0.6-0.7,0.7-0.9c0.2-0.3,0.2-0.5,0.2-0.8s-0.1-0.6-0.2-0.8c-0.2-0.2-0.4-0.3-0.7-0.3
		s-0.6,0.1-0.8,0.3s-0.3,0.5-0.3,0.9h-1.5c0-0.4,0.1-0.9,0.3-1.2c0.2-0.4,0.5-0.7,0.9-0.9s0.8-0.3,1.3-0.3c0.8,0,1.3,0.2,1.8,0.5
		c0.4,0.4,0.6,0.9,0.6,1.5c0,0.4-0.1,0.7-0.3,1.1c-0.2,0.4-0.5,0.8-1,1.3l-1.7,1.8h3.2v1.3H94.6z"/>
	<path d="M100.5,51.3l-2.8,6.5h-1.5l2.9-6.2h-3.7v-1.2h5.2L100.5,51.3L100.5,51.3z"/>
	<path d="M104.8,54.9c-0.4,0.4-0.8,0.6-1.3,0.6c-0.7,0-1.2-0.2-1.6-0.7c-0.4-0.4-0.6-1-0.6-1.8c0-0.5,0.1-0.9,0.3-1.3
		c0.2-0.4,0.5-0.7,0.9-0.9s0.8-0.3,1.3-0.3s0.9,0.1,1.3,0.4c0.4,0.2,0.7,0.6,0.9,1c0.2,0.5,0.3,1,0.3,1.6V54c0,1.2-0.3,2.2-0.9,2.9
		c-0.6,0.7-1.5,1.1-2.6,1.1h-0.4v-1.2h0.3C104,56.6,104.7,56,104.8,54.9z M103.8,54.4c0.2,0,0.4-0.1,0.6-0.2s0.3-0.3,0.4-0.4v-0.6
		c0-0.5-0.1-0.9-0.3-1.2s-0.4-0.4-0.8-0.4c-0.3,0-0.5,0.1-0.7,0.4c-0.2,0.3-0.3,0.6-0.3,1s0.1,0.7,0.3,1S103.5,54.4,103.8,54.4z"/>
	<path d="M111.3,50.4v1.2h-0.1c-0.7,0-1.2,0.2-1.6,0.5s-0.6,0.8-0.7,1.4c0.4-0.4,0.9-0.6,1.5-0.6s1.1,0.2,1.5,0.7s0.6,1.1,0.6,1.8
		c0,0.5-0.1,0.9-0.3,1.3c-0.2,0.4-0.5,0.7-0.9,0.9s-0.8,0.3-1.3,0.3c-0.8,0-1.4-0.3-1.9-0.8s-0.7-1.3-0.7-2.2v-0.5
		c0-0.8,0.2-1.5,0.5-2.1s0.7-1.1,1.3-1.4C109.8,50.6,110.4,50.4,111.3,50.4L111.3,50.4L111.3,50.4z M109.9,54.1
		c-0.2,0-0.4,0.1-0.6,0.2c-0.2,0.1-0.3,0.3-0.4,0.5v0.4c0,0.5,0.1,0.9,0.3,1.1c0.2,0.3,0.5,0.4,0.8,0.4s0.6-0.1,0.8-0.4
		c0.2-0.2,0.3-0.6,0.3-1s-0.1-0.7-0.3-1C110.5,54.2,110.2,54.1,109.9,54.1z"/>
	<path d="M117.9,54.8H115v3h-1.5v-7.4h4.8v1.2H115v1.9h2.9V54.8z"/>
</g>
</svg>
