<?xml version="1.0" encoding="utf-8"?>
<!-- Generator: Adobe Illustrator 21.0.2, SVG Export Plug-In . SVG Version: 6.00 Build 0)  -->
<svg version="1.1" id="Camada_1" xmlns="http://www.w3.org/2000/svg" xmlns:xlink="http://www.w3.org/1999/xlink" x="0px" y="0px"
	 viewBox="0 0 245 60" style="enable-background:new 0 0 245 60;" xml:space="preserve">
<style type="text/css">
	.st0{fill:#23398E;}
	.st1{fill:#575756;}
</style>
<g>
	<path class="st0" d="M23.7,30c1.8,1.5,2.7,3.7,2.7,6.5c0,2.9-0.9,5.1-2.7,6.7c-1.8,1.6-4.3,2.4-7.6,2.4H9V54H6.4V27.7h9.7
		C19.4,27.7,21.9,28.5,23.7,30z M21.8,41.5c1.4-1.1,2.1-2.8,2.1-4.9c0-2.1-0.7-3.7-2-4.8c-1.4-1.1-3.3-1.7-5.8-1.7H9v13.1h7
		C18.5,43.2,20.4,42.6,21.8,41.5z"/>
	<path class="st0" d="M36.4,35.5c1.2-0.8,2.7-1.2,4.4-1.2v2.4c-2.1,0-3.8,0.6-5,1.8c-1.3,1.2-2,2.9-2.2,5.1V54h-2.5V34.3h2.5v4.6
		C34.3,37.4,35.2,36.2,36.4,35.5z"/>
	<path class="st0" d="M56.3,54l0-3.3c-0.8,1.2-1.8,2-3,2.6c-1.3,0.6-2.7,0.8-4.3,0.8c-1.3,0-2.5-0.3-3.5-0.8c-1-0.5-1.8-1.2-2.4-2.1
		c-0.6-0.9-0.8-1.9-0.8-3c0-1.7,0.7-3,2-4c1.3-1,3.1-1.5,5.4-1.5h6.6v-1.5c0-1.6-0.5-2.8-1.4-3.6c-0.9-0.9-2.3-1.3-4.1-1.3
		c-2.1,0-4.2,0.8-6.4,2.4l-1.1-1.7c1.3-0.9,2.6-1.6,3.8-2.1c1.2-0.4,2.6-0.7,4.1-0.7c2.4,0,4.2,0.6,5.5,1.8c1.3,1.2,2,2.8,2,4.9
		l0,13.1H56.3z M53.8,50.8c1.2-0.8,2-2,2.5-3.4v-2.7h-6.4c-1.7,0-3,0.3-4,0.9c-0.9,0.6-1.4,1.4-1.4,2.6c0,1.2,0.4,2.1,1.3,2.8
		s2,1.1,3.4,1.1C51.1,52,52.5,51.6,53.8,50.8z"/>
	<path class="st0" d="M83.4,26.1V54h-2.5v-4.5c-0.8,1.5-1.8,2.6-3.2,3.4c-1.4,0.8-2.9,1.2-4.7,1.2c-1.9,0-3.5-0.4-5-1.3
		c-1.5-0.9-2.6-2-3.4-3.6c-0.8-1.5-1.2-3.3-1.2-5.2c0-1.9,0.4-3.7,1.2-5.2c0.8-1.5,1.9-2.7,3.4-3.5c1.4-0.9,3.1-1.3,4.9-1.3
		c1.8,0,3.4,0.4,4.8,1.2c1.4,0.8,2.4,2,3.2,3.5V26.1H83.4z M77.3,51c1.1-0.7,2-1.6,2.7-2.8c0.6-1.2,1-2.5,1-4c0-1.5-0.3-2.9-1-4
		c-0.6-1.2-1.5-2.1-2.7-2.8c-1.1-0.7-2.4-1-3.8-1s-2.7,0.3-3.8,1c-1.1,0.7-2,1.6-2.7,2.8s-1,2.5-1,4c0,1.5,0.3,2.8,1,4
		c0.6,1.2,1.5,2.1,2.7,2.8s2.4,1,3.9,1S76.2,51.7,77.3,51z"/>
	<path class="st0" d="M104,35.5c1.5,0.8,2.7,2,3.5,3.5c0.9,1.5,1.3,3.2,1.3,5.1c0,1.9-0.4,3.7-1.3,5.2c-0.9,1.5-2,2.7-3.5,3.5
		c-1.5,0.8-3.2,1.3-5.1,1.3c-1.9,0-3.6-0.4-5.1-1.3c-1.5-0.8-2.7-2-3.5-3.5c-0.9-1.5-1.3-3.2-1.3-5.2c0-1.9,0.4-3.6,1.3-5.1
		c0.9-1.5,2-2.7,3.5-3.5s3.2-1.3,5.1-1.3C100.8,34.2,102.5,34.6,104,35.5z M95.1,37.4c-1.1,0.7-2,1.6-2.6,2.7
		c-0.6,1.2-0.9,2.5-0.9,4c0,1.5,0.3,2.9,0.9,4.1c0.6,1.2,1.5,2.1,2.6,2.7c1.1,0.7,2.4,1,3.8,1c1.4,0,2.7-0.3,3.8-1
		c1.1-0.7,2-1.6,2.6-2.7c0.6-1.2,0.9-2.5,0.9-4.1c0-1.5-0.3-2.8-0.9-4c-0.6-1.2-1.5-2.1-2.6-2.7c-1.1-0.7-2.4-1-3.8-1
		C97.5,36.4,96.2,36.7,95.1,37.4z"/>
	<path class="st0" d="M133.1,54.4c-1.1-1.1-2.6-2.6-4.5-4.4c-1.2,1.4-2.5,2.4-3.9,3.1c-1.4,0.7-2.8,1.1-4.3,1.1
		c-1.4,0-2.7-0.3-3.9-0.9c-1.2-0.6-2.1-1.5-2.8-2.6c-0.7-1.1-1-2.3-1-3.6c0-1.7,0.5-3.2,1.6-4.3s2.6-2.2,4.5-3.2
		c-0.9-1.2-1.6-2.3-2.1-3.3c-0.5-1-0.7-2-0.7-3c0-1.1,0.3-2,0.8-2.8s1.3-1.5,2.2-2c1-0.5,2.1-0.7,3.3-0.7c1.8,0,3.2,0.5,4.3,1.4
		c1.1,1,1.7,2.2,1.7,3.7c0,1.1-0.3,2.1-0.9,2.9c-0.6,0.9-1.3,1.6-2.2,2.2c-0.9,0.6-2,1.3-3.5,2.1c1.3,1.6,3.5,3.9,6.7,7.1
		c1-1.5,2-3.3,2.8-5.3l1.8,1.3c-0.9,2.1-2,3.9-3.1,5.4l4.6,4.6L133.1,54.4z M127.2,48.5c-3.4-3.4-5.9-5.9-7.3-7.6
		c-1.6,0.9-2.8,1.8-3.7,2.7c-0.9,0.9-1.3,2-1.3,3.3c0,1.5,0.5,2.8,1.6,3.8c1.1,1,2.4,1.5,4,1.5C122.8,52.1,125.1,50.9,127.2,48.5z
		 M120.5,38.6c1.3-0.7,2.3-1.2,3-1.7c0.8-0.5,1.4-1.1,1.9-1.8c0.5-0.7,0.7-1.4,0.7-2.3c0-1-0.4-1.9-1.1-2.5c-0.7-0.6-1.6-1-2.8-1
		c-1.3,0-2.3,0.4-3,1.1c-0.8,0.7-1.2,1.6-1.2,2.7C118.1,34.6,118.9,36.4,120.5,38.6z"/>
	<path class="st0" d="M156.2,30c1.8,1.5,2.7,3.7,2.7,6.5c0,2.9-0.9,5.1-2.7,6.7c-1.8,1.6-4.3,2.4-7.6,2.4h-7.1V54h-2.6V27.7h9.7
		C151.9,27.7,154.4,28.5,156.2,30z M154.3,41.5c1.4-1.1,2.1-2.8,2.1-4.9c0-2.1-0.7-3.7-2-4.8c-1.4-1.1-3.3-1.7-5.8-1.7h-7v13.1h7
		C151,43.2,152.9,42.6,154.3,41.5z"/>
	<path class="st0" d="M168.9,35.5c1.2-0.8,2.7-1.2,4.4-1.2v2.4c-2.1,0-3.8,0.6-5,1.8c-1.3,1.2-2,2.9-2.2,5.1V54h-2.5V34.3h2.5v4.6
		C166.8,37.4,167.7,36.2,168.9,35.5z"/>
	<path class="st0" d="M188.8,54l0-3.3c-0.8,1.2-1.8,2-3,2.6c-1.3,0.6-2.7,0.8-4.3,0.8c-1.3,0-2.5-0.3-3.5-0.8
		c-1-0.5-1.8-1.2-2.4-2.1c-0.6-0.9-0.8-1.9-0.8-3c0-1.7,0.7-3,2-4s3.1-1.5,5.4-1.5h6.6v-1.5c0-1.6-0.5-2.8-1.4-3.6
		c-0.9-0.9-2.3-1.3-4.1-1.3c-2.1,0-4.2,0.8-6.4,2.4l-1.1-1.7c1.3-0.9,2.6-1.6,3.8-2.1c1.2-0.4,2.6-0.7,4.1-0.7
		c2.4,0,4.2,0.6,5.5,1.8c1.3,1.2,2,2.8,2,4.9l0,13.1H188.8z M186.3,50.8c1.2-0.8,2-2,2.5-3.4v-2.7h-6.4c-1.7,0-3,0.3-4,0.9
		c-0.9,0.6-1.4,1.4-1.4,2.6c0,1.2,0.4,2.1,1.3,2.8s2,1.1,3.4,1.1C183.6,52,185.1,51.6,186.3,50.8z"/>
	<path class="st0" d="M215.9,26.1V54h-2.5v-4.5c-0.8,1.5-1.8,2.6-3.2,3.4c-1.4,0.8-2.9,1.2-4.7,1.2c-1.9,0-3.5-0.4-5-1.3
		c-1.5-0.9-2.6-2-3.4-3.6c-0.8-1.5-1.2-3.3-1.2-5.2c0-1.9,0.4-3.7,1.2-5.2c0.8-1.5,1.9-2.7,3.4-3.5c1.4-0.9,3.1-1.3,4.9-1.3
		c1.8,0,3.4,0.4,4.8,1.2c1.4,0.8,2.4,2,3.2,3.5V26.1H215.9z M209.8,51c1.1-0.7,2-1.6,2.7-2.8c0.6-1.2,1-2.5,1-4c0-1.5-0.3-2.9-1-4
		s-1.5-2.1-2.7-2.8c-1.1-0.7-2.4-1-3.8-1c-1.4,0-2.7,0.3-3.8,1c-1.1,0.7-2,1.6-2.7,2.8c-0.7,1.2-1,2.5-1,4c0,1.5,0.3,2.8,1,4
		c0.6,1.2,1.5,2.1,2.7,2.8c1.1,0.7,2.4,1,3.9,1C207.4,52,208.7,51.7,209.8,51z"/>
	<path class="st0" d="M236.5,35.5c1.5,0.8,2.7,2,3.5,3.5c0.9,1.5,1.3,3.2,1.3,5.1c0,1.9-0.4,3.7-1.3,5.2c-0.9,1.5-2,2.7-3.5,3.5
		c-1.5,0.8-3.2,1.3-5.1,1.3c-1.9,0-3.6-0.4-5.1-1.3c-1.5-0.8-2.7-2-3.5-3.5c-0.9-1.5-1.3-3.2-1.3-5.2c0-1.9,0.4-3.6,1.3-5.1
		c0.9-1.5,2-2.7,3.5-3.5c1.5-0.8,3.2-1.3,5.1-1.3C233.3,34.2,235,34.6,236.5,35.5z M227.6,37.4c-1.1,0.7-2,1.6-2.6,2.7
		c-0.6,1.2-0.9,2.5-0.9,4c0,1.5,0.3,2.9,0.9,4.1c0.6,1.2,1.5,2.1,2.6,2.7c1.1,0.7,2.4,1,3.8,1c1.4,0,2.7-0.3,3.8-1
		c1.1-0.7,2-1.6,2.6-2.7c0.6-1.2,0.9-2.5,0.9-4.1c0-1.5-0.3-2.8-0.9-4c-0.6-1.2-1.5-2.1-2.6-2.7s-2.4-1-3.8-1
		C230,36.4,228.7,36.7,227.6,37.4z"/>
</g>
<g>
	<path class="st1" d="M68.9,16.2c-0.2,0-0.4-0.1-0.4-0.3l-0.2-0.7c-0.2,0.2-0.3,0.3-0.5,0.5c-0.2,0.1-0.3,0.3-0.5,0.4
		c-0.2,0.1-0.4,0.2-0.6,0.2c-0.2,0.1-0.5,0.1-0.7,0.1c-0.4,0-0.8-0.1-1.1-0.3c-0.3-0.2-0.6-0.4-0.9-0.7c-0.2-0.3-0.4-0.7-0.6-1.2
		c-0.1-0.5-0.2-1-0.2-1.6c0-0.5,0.1-1.1,0.2-1.5s0.4-0.9,0.6-1.2c0.3-0.3,0.6-0.6,1-0.8c0.4-0.2,0.8-0.3,1.3-0.3
		c0.4,0,0.8,0.1,1.1,0.2C67.7,9,68,9.2,68.2,9.4V5.6H70v10.6H68.9z M66.6,14.9c0.4,0,0.7-0.1,0.9-0.2s0.5-0.4,0.7-0.7v-3.3
		c-0.2-0.2-0.4-0.4-0.7-0.5c-0.2-0.1-0.5-0.2-0.8-0.2c-0.3,0-0.5,0.1-0.7,0.2c-0.2,0.1-0.4,0.3-0.6,0.5c-0.2,0.2-0.3,0.5-0.4,0.8
		c-0.1,0.3-0.1,0.7-0.1,1.1c0,0.4,0,0.8,0.1,1.1c0.1,0.3,0.2,0.5,0.3,0.7c0.1,0.2,0.3,0.3,0.5,0.4C66.1,14.9,66.3,14.9,66.6,14.9z"
		/>
	<path class="st1" d="M74.9,8.7c0.5,0,0.9,0.1,1.3,0.2c0.4,0.1,0.7,0.4,1,0.6c0.3,0.3,0.5,0.6,0.7,1s0.2,0.9,0.2,1.4
		c0,0.3,0,0.4-0.1,0.5c-0.1,0.1-0.2,0.1-0.3,0.1h-4.5c0,0.4,0.1,0.7,0.2,1c0.1,0.3,0.2,0.5,0.4,0.7c0.2,0.2,0.4,0.3,0.6,0.4
		c0.2,0.1,0.5,0.1,0.8,0.1s0.5,0,0.7-0.1c0.2-0.1,0.4-0.1,0.5-0.2c0.2-0.1,0.3-0.2,0.4-0.2c0.1-0.1,0.2-0.1,0.3-0.1
		c0.1,0,0.3,0.1,0.3,0.2l0.5,0.6c-0.2,0.2-0.4,0.4-0.7,0.6s-0.5,0.3-0.8,0.4c-0.3,0.1-0.5,0.2-0.8,0.2c-0.3,0-0.5,0.1-0.8,0.1
		c-0.5,0-1-0.1-1.4-0.3s-0.8-0.4-1.1-0.8c-0.3-0.3-0.6-0.7-0.8-1.2c-0.2-0.5-0.3-1.1-0.3-1.7c0-0.5,0.1-1,0.2-1.4
		c0.2-0.4,0.4-0.8,0.7-1.2C72.6,9.5,73,9.2,73.4,9C73.8,8.8,74.3,8.7,74.9,8.7z M74.9,10c-0.5,0-0.9,0.1-1.2,0.4
		c-0.3,0.3-0.5,0.7-0.6,1.2h3.3c0-0.2,0-0.4-0.1-0.6c-0.1-0.2-0.2-0.4-0.3-0.5s-0.3-0.3-0.5-0.4C75.4,10,75.2,10,74.9,10z"/>
	<path class="st1" d="M83.9,10.3c0,0.1-0.1,0.1-0.2,0.2c-0.1,0-0.1,0-0.2,0c-0.1,0-0.2,0-0.3-0.1c-0.1,0-0.2-0.1-0.3-0.2
		c-0.1-0.1-0.3-0.1-0.4-0.2c-0.2,0-0.4-0.1-0.6-0.1c-0.3,0-0.6,0.1-0.8,0.2c-0.2,0.1-0.3,0.3-0.3,0.6c0,0.2,0.1,0.3,0.2,0.4
		c0.1,0.1,0.2,0.2,0.4,0.3s0.4,0.2,0.6,0.2c0.2,0.1,0.4,0.1,0.7,0.2c0.2,0.1,0.4,0.2,0.7,0.3c0.2,0.1,0.4,0.2,0.6,0.4
		c0.2,0.2,0.3,0.3,0.4,0.5c0.1,0.2,0.2,0.5,0.2,0.8c0,0.4-0.1,0.7-0.2,1c-0.1,0.3-0.3,0.6-0.6,0.8s-0.6,0.4-0.9,0.5
		c-0.4,0.1-0.8,0.2-1.3,0.2c-0.3,0-0.5,0-0.7-0.1s-0.5-0.1-0.7-0.2c-0.2-0.1-0.4-0.2-0.6-0.3c-0.2-0.1-0.4-0.2-0.5-0.4l0.4-0.7
		c0.1-0.1,0.1-0.1,0.2-0.2s0.2-0.1,0.3-0.1s0.2,0,0.3,0.1c0.1,0.1,0.2,0.1,0.3,0.2c0.1,0.1,0.3,0.1,0.5,0.2s0.4,0.1,0.7,0.1
		c0.2,0,0.4,0,0.5-0.1c0.2,0,0.3-0.1,0.4-0.2c0.1-0.1,0.2-0.2,0.2-0.3s0.1-0.2,0.1-0.3c0-0.2-0.1-0.3-0.2-0.4
		c-0.1-0.1-0.2-0.2-0.4-0.3c-0.2-0.1-0.4-0.2-0.6-0.2s-0.4-0.1-0.7-0.2c-0.2-0.1-0.4-0.2-0.7-0.3c-0.2-0.1-0.4-0.2-0.6-0.4
		s-0.3-0.4-0.4-0.6c-0.1-0.2-0.2-0.5-0.2-0.8c0-0.3,0.1-0.6,0.2-0.9c0.1-0.3,0.3-0.5,0.5-0.7C80,9.2,80.3,9,80.7,8.9
		c0.3-0.1,0.7-0.2,1.2-0.2c0.5,0,1,0.1,1.4,0.3c0.4,0.2,0.8,0.4,1,0.7L83.9,10.3z"/>
	<path class="st1" d="M88.8,8.7c0.5,0,0.9,0.1,1.3,0.2c0.4,0.1,0.7,0.4,1,0.6c0.3,0.3,0.5,0.6,0.7,1s0.2,0.9,0.2,1.4
		c0,0.3,0,0.4-0.1,0.5c-0.1,0.1-0.2,0.1-0.3,0.1h-4.5c0,0.4,0.1,0.7,0.2,1c0.1,0.3,0.2,0.5,0.4,0.7c0.2,0.2,0.4,0.3,0.6,0.4
		c0.2,0.1,0.5,0.1,0.8,0.1s0.5,0,0.7-0.1c0.2-0.1,0.4-0.1,0.5-0.2c0.2-0.1,0.3-0.2,0.4-0.2c0.1-0.1,0.2-0.1,0.3-0.1
		c0.1,0,0.3,0.1,0.3,0.2l0.5,0.6c-0.2,0.2-0.4,0.4-0.7,0.6s-0.5,0.3-0.8,0.4c-0.3,0.1-0.5,0.2-0.8,0.2c-0.3,0-0.5,0.1-0.8,0.1
		c-0.5,0-1-0.1-1.4-0.3s-0.8-0.4-1.1-0.8c-0.3-0.3-0.6-0.7-0.8-1.2c-0.2-0.5-0.3-1.1-0.3-1.7c0-0.5,0.1-1,0.2-1.4
		c0.2-0.4,0.4-0.8,0.7-1.2c0.3-0.3,0.7-0.6,1.1-0.8C87.8,8.8,88.3,8.7,88.8,8.7z M88.9,10c-0.5,0-0.9,0.1-1.2,0.4
		c-0.3,0.3-0.5,0.7-0.6,1.2h3.3c0-0.2,0-0.4-0.1-0.6c-0.1-0.2-0.2-0.4-0.3-0.5s-0.3-0.3-0.5-0.4C89.4,10,89.1,10,88.9,10z"/>
	<path class="st1" d="M93.4,16.2V8.9h1.1c0.2,0,0.4,0.1,0.5,0.3L95,9.8c0.1-0.2,0.3-0.3,0.5-0.4C95.6,9.2,95.8,9.1,96,9
		c0.2-0.1,0.4-0.2,0.6-0.2c0.2,0,0.4-0.1,0.7-0.1c0.4,0,0.8,0.1,1.1,0.2c0.3,0.1,0.6,0.3,0.8,0.6c0.2,0.2,0.4,0.5,0.5,0.9
		c0.1,0.3,0.2,0.7,0.2,1.1v4.7H98v-4.7c0-0.4-0.1-0.8-0.3-1c-0.2-0.2-0.5-0.4-0.9-0.4c-0.3,0-0.6,0.1-0.9,0.2
		c-0.3,0.1-0.5,0.3-0.8,0.6v5.3H93.4z"/>
	<path class="st1" d="M100.5,8.9h1.5c0.1,0,0.2,0,0.3,0.1s0.1,0.1,0.2,0.2l1.4,3.9c0.1,0.2,0.1,0.5,0.2,0.7c0.1,0.2,0.1,0.4,0.2,0.7
		c0-0.2,0.1-0.4,0.2-0.7c0.1-0.2,0.1-0.4,0.2-0.7l1.4-3.9c0-0.1,0.1-0.2,0.2-0.2s0.2-0.1,0.3-0.1h1.4l-2.9,7.4h-1.6L100.5,8.9z"/>
	<path class="st1" d="M111.9,8.7c0.5,0,1,0.1,1.5,0.3c0.4,0.2,0.8,0.4,1.1,0.8c0.3,0.3,0.6,0.7,0.7,1.2s0.3,1,0.3,1.6
		c0,0.6-0.1,1.1-0.3,1.6c-0.2,0.5-0.4,0.9-0.7,1.2c-0.3,0.3-0.7,0.6-1.1,0.8c-0.4,0.2-0.9,0.3-1.5,0.3c-0.5,0-1-0.1-1.5-0.3
		c-0.4-0.2-0.8-0.4-1.1-0.8c-0.3-0.3-0.6-0.7-0.7-1.2c-0.2-0.5-0.3-1-0.3-1.6c0-0.6,0.1-1.1,0.3-1.6c0.2-0.5,0.4-0.9,0.7-1.2
		c0.3-0.3,0.7-0.6,1.1-0.8C110.8,8.8,111.3,8.7,111.9,8.7z M111.9,14.9c0.6,0,1.1-0.2,1.4-0.6c0.3-0.4,0.4-1,0.4-1.8
		s-0.1-1.4-0.4-1.8c-0.3-0.4-0.7-0.6-1.4-0.6c-0.6,0-1.1,0.2-1.4,0.6s-0.4,1-0.4,1.8s0.1,1.4,0.4,1.8S111.2,14.9,111.9,14.9z"/>
	<path class="st1" d="M118.6,5.6v10.6h-1.8V5.6H118.6z"/>
	<path class="st1" d="M119.6,8.9h1.5c0.1,0,0.2,0,0.3,0.1s0.1,0.1,0.2,0.2l1.4,3.9c0.1,0.2,0.1,0.5,0.2,0.7c0.1,0.2,0.1,0.4,0.2,0.7
		c0-0.2,0.1-0.4,0.2-0.7c0.1-0.2,0.1-0.4,0.2-0.7l1.4-3.9c0-0.1,0.1-0.2,0.2-0.2s0.2-0.1,0.3-0.1h1.4l-2.9,7.4h-1.6L119.6,8.9z"/>
	<path class="st1" d="M130,6.7c0,0.2,0,0.3-0.1,0.4c-0.1,0.1-0.1,0.3-0.2,0.4c-0.1,0.1-0.2,0.2-0.4,0.2c-0.1,0.1-0.3,0.1-0.4,0.1
		c-0.2,0-0.3,0-0.4-0.1s-0.3-0.1-0.4-0.2c-0.1-0.1-0.2-0.2-0.2-0.4c-0.1-0.1-0.1-0.3-0.1-0.4c0-0.2,0-0.3,0.1-0.4
		c0.1-0.1,0.1-0.3,0.2-0.4c0.1-0.1,0.2-0.2,0.4-0.2s0.3-0.1,0.4-0.1c0.2,0,0.3,0,0.4,0.1c0.1,0.1,0.3,0.1,0.4,0.2
		c0.1,0.1,0.2,0.2,0.2,0.4C130,6.4,130,6.6,130,6.7z M129.8,8.9v7.4H128V8.9H129.8z"/>
	<path class="st1" d="M136.9,16.2c-0.2,0-0.4-0.1-0.4-0.3l-0.2-0.7c-0.2,0.2-0.3,0.3-0.5,0.5c-0.2,0.1-0.3,0.3-0.5,0.4
		c-0.2,0.1-0.4,0.2-0.6,0.2c-0.2,0.1-0.5,0.1-0.7,0.1c-0.4,0-0.8-0.1-1.1-0.3c-0.3-0.2-0.6-0.4-0.9-0.7c-0.2-0.3-0.4-0.7-0.6-1.2
		c-0.1-0.5-0.2-1-0.2-1.6c0-0.5,0.1-1.1,0.2-1.5s0.4-0.9,0.6-1.2c0.3-0.3,0.6-0.6,1-0.8c0.4-0.2,0.8-0.3,1.3-0.3
		c0.4,0,0.8,0.1,1.1,0.2c0.3,0.1,0.6,0.3,0.8,0.5V5.6h1.8v10.6H136.9z M134.6,14.9c0.4,0,0.7-0.1,0.9-0.2s0.5-0.4,0.7-0.7v-3.3
		c-0.2-0.2-0.4-0.4-0.7-0.5c-0.2-0.1-0.5-0.2-0.8-0.2c-0.3,0-0.5,0.1-0.7,0.2c-0.2,0.1-0.4,0.3-0.6,0.5c-0.2,0.2-0.3,0.5-0.4,0.8
		c-0.1,0.3-0.1,0.7-0.1,1.1c0,0.4,0,0.8,0.1,1.1c0.1,0.3,0.2,0.5,0.3,0.7c0.1,0.2,0.3,0.3,0.5,0.4C134.1,14.9,134.3,14.9,134.6,14.9
		z"/>
	<path class="st1" d="M143,8.7c0.5,0,1,0.1,1.5,0.3c0.4,0.2,0.8,0.4,1.1,0.8c0.3,0.3,0.6,0.7,0.7,1.2s0.3,1,0.3,1.6
		c0,0.6-0.1,1.1-0.3,1.6c-0.2,0.5-0.4,0.9-0.7,1.2c-0.3,0.3-0.7,0.6-1.1,0.8c-0.4,0.2-0.9,0.3-1.5,0.3c-0.5,0-1-0.1-1.5-0.3
		c-0.4-0.2-0.8-0.4-1.1-0.8c-0.3-0.3-0.6-0.7-0.7-1.2c-0.2-0.5-0.3-1-0.3-1.6c0-0.6,0.1-1.1,0.3-1.6c0.2-0.5,0.4-0.9,0.7-1.2
		c0.3-0.3,0.7-0.6,1.1-0.8C141.9,8.8,142.4,8.7,143,8.7z M143,14.9c0.6,0,1.1-0.2,1.4-0.6c0.3-0.4,0.4-1,0.4-1.8s-0.1-1.4-0.4-1.8
		c-0.3-0.4-0.7-0.6-1.4-0.6c-0.6,0-1.1,0.2-1.4,0.6s-0.4,1-0.4,1.8s0.1,1.4,0.4,1.8S142.4,14.9,143,14.9z"/>
	<path class="st1" d="M151.5,18.6V8.9h1.1c0.2,0,0.4,0.1,0.5,0.3l0.1,0.7c0.3-0.3,0.6-0.6,1-0.8c0.4-0.2,0.8-0.3,1.4-0.3
		c0.4,0,0.8,0.1,1.1,0.3c0.3,0.2,0.6,0.4,0.9,0.7c0.2,0.3,0.4,0.7,0.6,1.2s0.2,1,0.2,1.6c0,0.5-0.1,1.1-0.2,1.5
		c-0.1,0.5-0.4,0.9-0.6,1.2s-0.6,0.6-1,0.8c-0.4,0.2-0.8,0.3-1.3,0.3c-0.4,0-0.8-0.1-1.1-0.2s-0.5-0.3-0.8-0.5v3H151.5z M154.9,10.1
		c-0.4,0-0.7,0.1-0.9,0.2c-0.3,0.2-0.5,0.4-0.7,0.7v3.3c0.2,0.2,0.4,0.4,0.7,0.5c0.2,0.1,0.5,0.1,0.8,0.1c0.3,0,0.5-0.1,0.7-0.2
		c0.2-0.1,0.4-0.3,0.5-0.5c0.2-0.2,0.3-0.5,0.3-0.8c0.1-0.3,0.1-0.7,0.1-1.1c0-0.4,0-0.8-0.1-1.1c-0.1-0.3-0.2-0.5-0.3-0.7
		c-0.1-0.2-0.3-0.3-0.5-0.4C155.3,10.2,155.1,10.1,154.9,10.1z"/>
	<path class="st1" d="M162.8,8.7c0.5,0,1,0.1,1.5,0.3c0.4,0.2,0.8,0.4,1.1,0.8s0.6,0.7,0.7,1.2s0.3,1,0.3,1.6c0,0.6-0.1,1.1-0.3,1.6
		c-0.2,0.5-0.4,0.9-0.7,1.2s-0.7,0.6-1.1,0.8c-0.4,0.2-0.9,0.3-1.5,0.3c-0.5,0-1-0.1-1.5-0.3c-0.4-0.2-0.8-0.4-1.2-0.8
		s-0.6-0.7-0.7-1.2c-0.2-0.5-0.3-1-0.3-1.6c0-0.6,0.1-1.1,0.3-1.6c0.2-0.5,0.4-0.9,0.7-1.2s0.7-0.6,1.2-0.8
		C161.8,8.8,162.3,8.7,162.8,8.7z M162.8,14.9c0.6,0,1.1-0.2,1.4-0.6c0.3-0.4,0.4-1,0.4-1.8s-0.1-1.4-0.4-1.8s-0.7-0.6-1.4-0.6
		c-0.6,0-1.1,0.2-1.4,0.6c-0.3,0.4-0.4,1-0.4,1.8s0.1,1.4,0.4,1.8C161.8,14.7,162.2,14.9,162.8,14.9z"/>
	<path class="st1" d="M167.8,16.2V8.9h1c0.2,0,0.3,0,0.4,0.1c0.1,0.1,0.1,0.2,0.1,0.3l0.1,0.8c0.2-0.4,0.5-0.8,0.8-1
		c0.3-0.3,0.7-0.4,1.1-0.4c0.3,0,0.6,0.1,0.8,0.2l-0.1,1.3c0,0.1-0.1,0.1-0.1,0.2c0,0-0.1,0.1-0.2,0.1c-0.1,0-0.2,0-0.3,0
		c-0.1,0-0.3,0-0.4,0c-0.2,0-0.4,0-0.5,0.1c-0.2,0.1-0.3,0.1-0.4,0.2s-0.2,0.2-0.3,0.4c-0.1,0.2-0.2,0.3-0.3,0.5v4.5H167.8z"/>
	<path class="st1" d="M173.1,10.1c0-0.1,0-0.3,0.1-0.4s0.1-0.2,0.2-0.3c0.1-0.1,0.2-0.2,0.3-0.2c0.1-0.1,0.3-0.1,0.4-0.1
		c0.2,0,0.3,0,0.4,0.1c0.1,0.1,0.2,0.1,0.3,0.2c0.1,0.1,0.2,0.2,0.2,0.3c0.1,0.1,0.1,0.3,0.1,0.4c0,0.2,0,0.3-0.1,0.4
		c-0.1,0.1-0.1,0.2-0.2,0.3c-0.1,0.1-0.2,0.2-0.3,0.2c-0.1,0.1-0.3,0.1-0.4,0.1c-0.2,0-0.3,0-0.4-0.1c-0.1-0.1-0.2-0.1-0.3-0.2
		c-0.1-0.1-0.2-0.2-0.2-0.3C173.1,10.4,173.1,10.3,173.1,10.1z M173.1,15.2c0-0.1,0-0.3,0.1-0.4s0.1-0.2,0.2-0.3
		c0.1-0.1,0.2-0.2,0.3-0.2c0.1-0.1,0.3-0.1,0.4-0.1c0.2,0,0.3,0,0.4,0.1c0.1,0.1,0.2,0.1,0.3,0.2c0.1,0.1,0.2,0.2,0.2,0.3
		c0.1,0.1,0.1,0.3,0.1,0.4c0,0.2,0,0.3-0.1,0.4c-0.1,0.1-0.1,0.2-0.2,0.3c-0.1,0.1-0.2,0.2-0.3,0.2c-0.1,0.1-0.3,0.1-0.4,0.1
		c-0.2,0-0.3,0-0.4-0.1c-0.1-0.1-0.2-0.1-0.3-0.2c-0.1-0.1-0.2-0.2-0.2-0.3C173.1,15.5,173.1,15.4,173.1,15.2z"/>
</g>
</svg>
