<svg xmlns="http://www.w3.org/2000/svg" xmlns:xlink="http://www.w3.org/1999/xlink" version="1.1" x="0px" y="0px" viewBox="0 0 100 125" style="enable-background:new 0 0 100 100;" xml:space="preserve"><style type="text/css">
	.st0{fill:none;stroke:#000000;stroke-width:2;stroke-linecap:round;stroke-miterlimit:10;}
	.st1{fill:none;stroke:#000000;stroke-width:2;stroke-linecap:round;stroke-linejoin:round;stroke-miterlimit:10;}
	.st2{stroke:#000000;stroke-width:2;stroke-linecap:round;stroke-linejoin:round;stroke-miterlimit:10;}
	.st3{fill:none;stroke:#000000;stroke-width:2;stroke-miterlimit:10;}
</style><path d="M60.8,51H50.5V40.7c0-0.6-0.4-1-1-1s-1,0.4-1,1V51H38.2c-0.6,0-1,0.4-1,1s0.4,1,1,1h10.3v10.3c0,0.6,0.4,1,1,1s1-0.4,1-1V53  h10.3c0.6,0,1-0.4,1-1S61.4,51,60.8,51z"/><path d="M74.6,18.1c-9.3-3.7-19-0.2-25.1,8.9c-6.1-9.1-15.8-12.6-25.1-8.9c-9,3.6-17.2,14.4-13.9,29.5c3,13.5,13.4,23.6,21.5,29.7  c8.8,6.6,16.7,9.9,17.1,10.1c0.1,0.1,0.3,0.1,0.4,0.1s0.3,0,0.4-0.1c0.3-0.1,8.3-3.5,17.1-10.1c8.2-6.1,18.5-16.2,21.5-29.7  C91.9,32.5,83.7,21.7,74.6,18.1z M86.5,47.2c-5.2,23.2-33.4,36.5-37,38.2c-3.6-1.6-31.8-14.9-37-38.2c-3.1-14,4.4-24,12.6-27.2  c2.1-0.8,4.3-1.3,6.7-1.3c5.8,0,12.1,2.8,16.8,10.8c0.4,0.6,1.4,0.6,1.7,0c6.7-11.2,16.5-12.2,23.5-9.5  C82.2,23.2,89.7,33.2,86.5,47.2z"/><text x="0" y="115" fill="#000000" font-size="5px" font-weight="bold" font-family="'Helvetica Neue', Helvetica, Arial-Unicode, Arial, Sans-serif">Created by Made</text><text x="0" y="120" fill="#000000" font-size="5px" font-weight="bold" font-family="'Helvetica Neue', Helvetica, Arial-Unicode, Arial, Sans-serif">from the Noun Project</text></svg>