<svg xmlns="http://www.w3.org/2000/svg" xmlns:xlink="http://www.w3.org/1999/xlink" version="1.1" x="0px" y="0px" viewBox="0 0 100 125" style="enable-background:new 0 0 100 100;" xml:space="preserve"><style type="text/css">
	.st0{fill:none;stroke:#000000;stroke-width:2;stroke-linecap:round;stroke-miterlimit:10;}
	.st1{fill:none;stroke:#000000;stroke-width:2;stroke-linecap:round;stroke-linejoin:round;stroke-miterlimit:10;}
	.st2{stroke:#000000;stroke-width:2;stroke-linecap:round;stroke-linejoin:round;stroke-miterlimit:10;}
	.st3{fill:none;stroke:#000000;stroke-width:2;stroke-miterlimit:10;}
</style><path d="M74.7,18.1c-9.3-3.7-19-0.2-25.1,8.9c-6.1-9.1-15.8-12.6-25.1-8.9c-9,3.6-17.2,14.4-13.9,29.5c3,13.5,13.4,23.6,21.5,29.7  c8.8,6.6,16.7,9.9,17.1,10.1c0.1,0.1,0.3,0.1,0.4,0.1s0.3,0,0.4-0.1c0.3-0.1,8.3-3.5,17.1-10.1c8.2-6.1,18.5-16.2,21.5-29.7  C91.9,32.5,83.7,21.7,74.7,18.1z M86.6,47.2c-5.2,23.2-33.4,36.5-37,38.2c-3.6-1.6-31.8-14.9-37-38.2c-3.1-14,4.4-24,12.6-27.2  c2-0.8,4.3-1.3,6.7-1.3c5.8,0,12.1,2.8,16.8,10.8c0.4,0.6,1.4,0.6,1.7,0c6.7-11.2,16.5-12.2,23.5-9.5C82.2,23.2,89.7,33.2,86.6,47.2  z"/><path d="M74,49.2h-6c-0.5,0-0.9,0.3-1,0.8l-0.7,2.9l-2.3-14.6c-0.1-0.5-0.5-0.8-1-0.8c0,0,0,0,0,0c-0.5,0-0.9,0.3-1,0.8l-2,10.9  h-4.8L53.6,45c-0.2-0.4-0.5-0.7-1-0.6c-0.4,0-0.8,0.3-0.9,0.7l-2.4,8.7l-4.1-17.4c-0.1-0.5-0.5-0.8-1-0.8c-0.5,0-0.9,0.4-1,0.8  l-2.6,16.4l-3-12.3c-0.1-0.5-0.5-0.8-1-0.8c-0.5,0-0.9,0.3-1,0.8l-1.9,8.7h-9.5c-0.6,0-1,0.4-1,1s0.4,1,1,1h10.3  c0.5,0,0.9-0.3,1-0.8l1.1-5.2l3.2,12.9c0.1,0.5,0.5,0.8,1,0.8c0.5,0,0.9-0.4,0.9-0.8l2.6-16.2l3.8,16.3c0.1,0.4,0.5,0.8,1,0.8  c0,0,0,0,0,0c0.4,0,0.8-0.3,1-0.7l2.7-9.5l0.7,1.9c0.1,0.4,0.5,0.6,0.9,0.6h6.3c0.5,0,0.9-0.3,1-0.8l1.1-6L65.1,58  c0.1,0.5,0.5,0.8,0.9,0.8c0,0,0,0,0,0c0.5,0,0.9-0.3,1-0.8l1.7-6.9H74c0.6,0,1-0.4,1-1S74.5,49.2,74,49.2z"/><text x="0" y="115" fill="#000000" font-size="5px" font-weight="bold" font-family="'Helvetica Neue', Helvetica, Arial-Unicode, Arial, Sans-serif">Created by Made</text><text x="0" y="120" fill="#000000" font-size="5px" font-weight="bold" font-family="'Helvetica Neue', Helvetica, Arial-Unicode, Arial, Sans-serif">from the Noun Project</text></svg>