<svg xmlns="http://www.w3.org/2000/svg" xmlns:xlink="http://www.w3.org/1999/xlink" version="1.1" x="0px" y="0px" viewBox="0 0 100 125" style="enable-background:new 0 0 100 100;" xml:space="preserve"><style type="text/css">
	.st0{fill:none;stroke:#000000;stroke-width:2;stroke-linecap:round;stroke-miterlimit:10;}
	.st1{fill:none;stroke:#000000;stroke-width:2;stroke-linecap:round;stroke-linejoin:round;stroke-miterlimit:10;}
	.st2{stroke:#000000;stroke-width:2;stroke-linecap:round;stroke-linejoin:round;stroke-miterlimit:10;}
	.st3{fill:none;stroke:#000000;stroke-width:2;stroke-miterlimit:10;}
</style><path d="M53.2,68.2h-1.5v-1.5c0-0.6-0.4-1-1-1s-1,0.4-1,1v1.5h-1.5c-0.6,0-1,0.4-1,1s0.4,1,1,1h1.5v1.5c0,0.6,0.4,1,1,1s1-0.4,1-1  v-1.5h1.5c0.6,0,1-0.4,1-1S53.7,68.2,53.2,68.2z"/><path d="M62.8,50.3H38.3c-0.6,0-1,0.4-1,1s0.4,1,1,1h24.4c0.6,0,1-0.4,1-1S63.3,50.3,62.8,50.3z"/><path d="M62.8,55.8H38.3c-0.6,0-1,0.4-1,1s0.4,1,1,1h24.4c0.6,0,1-0.4,1-1S63.3,55.8,62.8,55.8z"/><path d="M62.8,61.3H38.3c-0.6,0-1,0.4-1,1s0.4,1,1,1h24.4c0.6,0,1-0.4,1-1S63.3,61.3,62.8,61.3z"/><path d="M23.2,88.7h54.3c0.6,0,1-0.4,1-1V20.8c0-0.6-0.4-1-1-1H62.6v-1.9c0-0.6-0.4-1-1-1H56v-0.4c0-3.1-2.5-5.7-5.7-5.7  s-5.7,2.5-5.7,5.7v0.4h-5.6c-0.6,0-1,0.4-1,1v1.9H23.2c-0.6,0-1,0.4-1,1v66.9C22.2,88.2,22.7,88.7,23.2,88.7z M40.2,18.9h5.6  c0.6,0,1-0.4,1-1v-1.4c0-2,1.6-3.7,3.7-3.7c2,0,3.7,1.6,3.7,3.7v1.4c0,0.6,0.4,1,1,1h5.6v4.7H40.2V18.9z M39.2,25.6h22.4  c0.6,0,1-0.4,1-1v-2.8H69v56.4H31.8V21.8h6.4v2.8C38.2,25.2,38.6,25.6,39.2,25.6z M24.2,21.8h5.5v57.4c0,0.6,0.4,1,1,1H70  c0.6,0,1-0.4,1-1V21.8h5.5v64.9H24.2V21.8z"/><circle cx="50.4" cy="16.2" r="1.2"/><path d="M37.8,40.1c0,0.6,0.4,1,1,1h5.6c0.5,0,0.8-0.3,1-0.7l0.2-0.8l1.3,4.2c0.1,0.4,0.6,0.7,1,0.7c0.5,0,0.8-0.4,0.9-0.8l1-5.3  l1.6,5.4c0.1,0.4,0.6,0.7,1,0.7c0.4,0,0.8-0.3,1-0.7l1.4-5.2l1.6,5.2c0.1,0.4,0.4,0.6,0.8,0.7c0,0,0.1,0,0.1,0  c0.3,0,0.7-0.2,0.9-0.5l1.8-2.9h2.7c0.6,0,1-0.4,1-1s-0.4-1-1-1h-3.3c-0.3,0-0.7,0.2-0.9,0.5l-0.9,1.5l-2-6.4  c-0.1-0.4-0.5-0.7-1-0.7c-0.4,0-0.8,0.3-0.9,0.7l-1.3,5l-1.7-5.8c-0.1-0.4-0.6-0.7-1-0.7c-0.5,0-0.8,0.4-0.9,0.8l-1.1,5.4l-1.1-3.7  c-0.1-0.4-0.5-0.7-1-0.7c-0.4,0-0.8,0.3-0.9,0.7l-0.9,3.4h-4.9C38.2,39.1,37.8,39.6,37.8,40.1z"/><text x="0" y="115" fill="#000000" font-size="5px" font-weight="bold" font-family="'Helvetica Neue', Helvetica, Arial-Unicode, Arial, Sans-serif">Created by Made</text><text x="0" y="120" fill="#000000" font-size="5px" font-weight="bold" font-family="'Helvetica Neue', Helvetica, Arial-Unicode, Arial, Sans-serif">from the Noun Project</text></svg>